PathFileType	4	(X/Y/Z)	C:/Users/opensim2020/Desktop/walking_exp_matlab/subject06_cal10_run.trc	
DataRate	CameraRate	NumFrames	NumMarkers	Units	OrigDataRate	OrigDataStartFrame	OrigNumFrames	
100.00	100.00	6	49	mm	100.00	169	118	
Frame#	Time	LKNE			RTIB			RFRM			RWRA			LTHI			RKNE			RELB			RFHD			LWRA			RUPA			STRN			RASI			CLAV			RSHO			LASI			RTHI			RBHD			LBHD			C7			RWRB			RFIN			RTOE			LSHO			RBAK			LTIB			RANK			LFIN			LANK			RHEE			T10			LHEE			LTOE			LFHD			LPSI			RPSI			LUPA			LELB			LFRM			LWRB			*39			*40			*41			*42			*43			*44			*45			*46			*47			*48			
		X1	Y1	Z1	X2	Y2	Z2	X3	Y3	Z3	X4	Y4	Z4	X5	Y5	Z5	X6	Y6	Z6	X7	Y7	Z7	X8	Y8	Z8	X9	Y9	Z9	X10	Y10	Z10	X11	Y11	Z11	X12	Y12	Z12	X13	Y13	Z13	X14	Y14	Z14	X15	Y15	Z15	X16	Y16	Z16	X17	Y17	Z17	X18	Y18	Z18	X19	Y19	Z19	X20	Y20	Z20	X21	Y21	Z21	X22	Y22	Z22	X23	Y23	Z23	X24	Y24	Z24	X25	Y25	Z25	X26	Y26	Z26	X27	Y27	Z27	X28	Y28	Z28	X29	Y29	Z29	X30	Y30	Z30	X31	Y31	Z31	X32	Y32	Z32	X33	Y33	Z33	X34	Y34	Z34	X35	Y35	Z35	X36	Y36	Z36	X37	Y37	Z37	X38	Y38	Z38	X39	Y39	Z39	X40	Y40	Z40	X41	Y41	Z41	X42	Y42	Z42	X43	Y43	Z43	X44	Y44	Z44	X45	Y45	Z45	X46	Y46	Z46	X47	Y47	Z47	X48	Y48	Z48	X49	Y49	Z49	

1	0.000	110.42571	-1975.90100	453.98178	335.11255	-2223.61133	360.98260	520.78979	-2014.07690	1000.10638	453.61053	-1930.76099	907.20776	77.13312	-2022.30420	606.23950	352.61984	-1997.65796	437.51413	520.87354	-2041.74927	1113.28955	285.28537	-1763.53662	1555.57300	-11.24464	-1893.24463	926.05664	487.27719	-1998.46851	1215.93701	219.05807	-1865.74182	1099.62061	352.68781	-1973.13269	888.75488	213.59792	-1839.87378	1281.08057	368.45612	-1875.96338	1343.18677	136.89833	-1977.44275	900.68073	382.62289	-2024.02844	560.28412	271.93066	-1901.15869	1527.97119	142.98642	-1890.93298	1529.07617	205.19208	-1925.54358	1388.15381	495.21246	-1971.00745	875.25446	491.69983	-1903.93445	839.11487	295.42047	-2387.46558	184.50981	52.02842	-1886.44043	1326.18152	297.60306	-2047.64685	1264.17334	130.72911	-2086.05640	226.34602	293.82593	-2403.18652	335.64423	-42.78619	-1850.46155	849.25195	185.39116	-2167.14111	82.19856	248.89128	-2440.64233	365.62366	248.34776	-2075.23584	1100.02710	226.47130	-2217.51025	86.37092	209.86263	-2037.94006	32.11764	154.20639	-1750.72351	1561.61206	167.70949	-2120.23877	970.65509	334.68423	-2109.68848	952.19409	-56.18543	-1988.64246	1183.57678	-94.04105	-2047.81189	1104.08826	-96.38201	-1982.92456	981.98938	-58.67274	-1930.57532	885.02032							202.99994	-1848.59473	1618.06653																					 
2	0.010	110.19695	-1959.65503	445.84280	338.78986	-2158.78906	357.72308	523.37427	-1996.39050	997.18152	461.30255	-1914.80249	900.19696	76.81812	-2002.07410	600.79956	354.11469	-1936.71667	440.93106	520.79742	-2021.05591	1110.94995	286.72729	-1736.98389	1552.20203	-2.91445	-1844.87976	926.83691	486.03784	-1976.33069	1213.23535	220.01183	-1834.95251	1094.67786	351.66537	-1943.71472	882.37604	215.13504	-1809.67358	1276.60571	369.70581	-1849.72351	1338.03284	136.53249	-1949.19141	893.92072	384.76041	-1973.74146	560.92224	272.17020	-1874.16797	1522.91296	143.34251	-1862.91895	1524.17212	204.45219	-1896.13391	1383.65405	502.13281	-1957.61194	870.51221	503.35037	-1892.00061	832.88434	299.17444	-2314.90479	178.74324	51.72715	-1853.57043	1320.73145	293.39407	-2020.09766	1258.29858	131.16403	-2083.08887	222.87045	297.98181	-2337.93262	328.11490	-31.97374	-1796.72559	853.32819	185.52409	-2165.86133	82.23190	253.50026	-2377.21997	356.79236	246.67580	-2046.08215	1092.76794	222.39993	-2221.54541	84.93690	210.09023	-2038.78088	31.96713	155.58150	-1723.41956	1558.56909	167.21515	-2091.89844	964.86029	333.93375	-2080.97046	946.33997	-56.46331	-1948.04834	1174.60596	-96.34578	-2005.50098	1093.61145	-92.25234	-1932.82324	975.70648	-50.57649	-1877.48376	883.16412							203.71753	-1822.15857	1613.59473																					 
3	0.020	108.95737	-1946.03430	439.33353	342.22913	-2092.99634	354.97711	525.83942	-1978.12476	998.48901	468.28143	-1897.82129	898.82434	75.73299	-1981.60144	597.04395	355.27396	-1875.90381	448.24091	521.20862	-2001.42346	1112.84705	288.42108	-1710.06042	1549.66003	6.18631	-1795.70996	932.63177	484.77704	-1955.12488	1214.11536	221.15343	-1804.07251	1090.78015	351.07224	-1913.89148	877.43243	216.64323	-1779.52197	1273.37512	370.74460	-1823.09924	1334.10034	136.11301	-1920.58582	888.46411	386.85919	-1923.40112	564.17151	272.69760	-1846.75354	1518.76355	144.03860	-1834.46191	1520.15796	204.09969	-1866.77234	1379.86841	507.45337	-1943.03796	870.26593	513.14087	-1878.47083	832.24463	303.01642	-2241.11206	171.02783	52.28231	-1820.23718	1317.21680	289.61108	-1991.88940	1253.69727	129.68048	-2077.33032	220.95760	302.22571	-2271.44727	318.63678	-19.09992	-1743.14392	862.09351	184.64963	-2165.68579	82.49436	257.20920	-2313.43701	345.04935	244.52531	-2016.02844	1089.18677	222.10915	-2217.75049	87.52431	210.45140	-2037.43579	32.18506	157.23630	-1695.49402	1556.12036	167.03262	-2062.97510	960.41168	333.29474	-2051.28931	942.79431	-56.50338	-1908.88782	1169.15076	-97.50494	-1962.11963	1086.10327	-87.39304	-1884.25293	972.49054	-40.72279	-1823.86011	885.81067							204.67451	-1795.25916	1609.92896																					 
4	0.030	107.10651	-1933.77466	433.54654	344.97708	-2026.68176	353.31732	528.06580	-1960.77271	1003.24768	473.84244	-1879.29333	902.88116	75.09317	-1961.76001	593.45612	355.96942	-1815.68506	458.92242	522.13318	-1982.94653	1118.21216	290.37225	-1682.40906	1548.24121	16.07053	-1746.51941	943.48926	483.39706	-1934.04443	1217.36304	222.26671	-1773.31799	1088.37646	351.19919	-1883.91565	874.42957	218.31854	-1749.25928	1271.38599	371.52847	-1796.06677	1331.89880	135.63763	-1889.88428	885.01740	388.33276	-1873.26550	570.27057	273.63580	-1818.70056	1515.89209	145.12053	-1805.56482	1517.39246	204.21243	-1837.44287	1377.11926	511.22205	-1926.31152	874.72949	520.15924	-1862.64111	836.69220	306.35056	-2165.84985	161.39673	53.72047	-1786.42017	1315.74609	286.16830	-1963.11157	1250.20398	127.96780	-2071.06714	219.34036	305.96167	-2203.49243	307.24295	-4.30745	-1689.32300	875.93060	182.20830	-2163.20483	84.58188	261.54022	-2247.41187	331.45474	241.98781	-1985.48633	1087.12476	217.24710	-2219.56323	88.62775	209.62195	-2039.09058	31.87885	159.03886	-1667.24097	1554.80762	166.80063	-2032.91418	957.59180	332.64169	-2020.23853	940.43262	-56.84867	-1870.04578	1165.95605	-98.16713	-1918.03748	1080.81189	-82.70812	-1835.19714	973.66656	-31.89793	-1768.20959	893.94629							205.87875	-1767.69080	1607.48059																					 
5	0.040	105.18266	-1921.38257	428.94580	347.32443	-1960.05151	352.71481	529.94037	-1943.54834	1010.95325	477.75085	-1859.01868	911.45667	74.52955	-1941.72351	589.97748	356.08179	-1757.59399	473.17206	522.63104	-1964.69043	1126.38928	292.56870	-1653.81262	1548.21460	25.76967	-1700.14014	957.96356	481.67599	-1912.83789	1223.44812	223.41588	-1742.35876	1087.68738	350.57739	-1853.79248	873.83606	220.43645	-1718.57629	1270.79773	372.38013	-1768.95679	1331.91284	133.39670	-1860.13293	882.58826	389.21844	-1823.64746	579.43872	275.07202	-1789.85339	1514.68335	146.63075	-1776.05310	1516.23901	204.66226	-1807.70618	1376.02466	514.25171	-1907.51819	883.12854	524.30829	-1843.21069	845.51025	308.89999	-2084.51929	153.20134	55.64649	-1752.48462	1316.19214	282.98700	-1933.78333	1248.11597	126.93356	-2064.70459	218.03391	308.94839	-2134.26123	294.48456	11.33812	-1637.19873	894.29602	181.15894	-2164.52271	85.94193	265.93158	-2179.73267	315.80484	239.33167	-1954.54333	1085.44592	213.34734	-2214.34155	94.76850	209.90160	-2037.76953	31.98875	161.15488	-1638.04468	1554.89355	166.31192	-2001.94812	955.91846	331.79794	-1988.56970	939.95129	-56.76079	-1830.94946	1165.13379	-99.19534	-1874.98315	1078.33557	-75.97545	-1787.58801	976.98438	-19.73296	-1716.18030	905.05524							207.46187	-1739.20752	1606.56970																					 
6	0.050	103.66377	-1908.97778	425.84299	348.53183	-1893.94897	353.43820	530.94073	-1924.80225	1021.65155	479.81598	-1836.76501	923.12347	74.46091	-1922.04614	587.41138	355.89511	-1701.97583	490.97308	522.54602	-1945.95667	1137.17432	294.94397	-1624.28784	1549.91052	35.97441	-1655.19470	975.61285	479.48996	-1890.77271	1231.96582	224.93567	-1710.96375	1089.00732	350.07245	-1821.74719	876.08618	222.86987	-1687.41113	1272.19543	373.49576	-1741.90405	1334.26489	131.71455	-1828.07080	882.13086	390.00876	-1775.05884	591.27625	276.98376	-1760.08057	1515.44495	148.63609	-1745.88489	1517.11206	205.22777	-1777.27283	1376.96936	516.46851	-1885.74365	894.82507	526.32953	-1820.40466	857.60596	310.49408	-2001.83325	144.27979	57.73756	-1718.46521	1318.23010	280.16312	-1903.85852	1247.89099	126.05531	-2057.89673	218.31546	310.97974	-2063.67554	281.00006	27.29967	-1587.30383	916.57910	180.62096	-2164.99902	88.60297	268.14221	-2111.15356	298.88586	236.44467	-1922.90588	1085.18335	217.03409	-2210.04395	102.50024	209.62122	-2037.44836	31.92658	163.39644	-1608.30371	1556.71448	165.39639	-1969.99719	955.20557	330.68796	-1956.15320	941.24469	-56.13356	-1791.40845	1166.06860	-99.45859	-1831.27747	1077.90771	-69.54987	-1739.24719	984.25146	-8.29419	-1665.27222	919.42749							209.56740	-1709.80945	1607.57593																					 
